<svg width="66" height="94" viewBox="0 0 66 94" fill="none" xmlns="http://www.w3.org/2000/svg">
<path d="M0 93.696L6.656 60.416C7.68 54.272 8.78933 47.9573 9.984 41.472C11.1787 34.9867 12.288 28.5867 13.312 22.272C14.4213 15.9573 15.2747 10.0267 15.872 4.48C20.736 2.944 25.984 1.83466 31.616 1.15199C37.248 0.383998 42.8373 0 48.384 0C54.8693 0 59.264 1.408 61.568 4.224C63.9573 7.04 65.152 10.8373 65.152 15.616C65.152 19.968 64.128 24.3627 62.08 28.8C60.032 33.152 57.344 37.12 54.016 40.704C50.7733 44.2027 47.1893 46.976 43.264 49.024C44.8 52.4373 46.4213 56.192 48.128 60.288C49.92 64.2987 51.584 68.1387 53.12 71.808C53.9733 73.9413 54.8267 76.0747 55.68 78.208C56.6187 80.3413 57.5147 82.4747 58.368 84.608L38.528 91.52C37.6747 88.5333 36.864 85.6747 36.096 82.944C35.328 80.2133 34.6027 77.5253 33.92 74.88C33.0667 71.7227 32.256 68.6933 31.488 65.792C30.72 62.8053 30.0373 60.16 29.44 57.856C28.928 55.552 28.6293 53.9307 28.544 52.992L26.88 53.504C26.368 56.2347 25.728 59.5627 24.96 63.488C24.2773 67.4133 23.6373 71.2107 23.04 74.88L20.736 88.32L0 93.696ZM30.08 38.144C31.616 37.9733 33.4933 37.3333 35.712 36.224C38.016 35.0293 40.2773 33.5787 42.496 31.872C44.8 30.1653 46.72 28.416 48.256 26.624C49.792 24.832 50.56 23.2533 50.56 21.888C50.56 20.1813 49.536 19.072 47.488 18.56C45.5253 17.9627 42.9227 17.664 39.68 17.664H36.864C36.352 17.7493 35.8827 17.792 35.456 17.792C35.0293 17.792 34.6027 17.792 34.176 17.792L30.08 38.144Z" fill="#2A2A2A"/>
</svg>
